<?xml version="1.0" standalone="no"?>
<!DOCTYPE svg PUBLIC "-//W3C//DTD SVG 20010904//EN"
 "http://www.w3.org/TR/2001/REC-SVG-20010904/DTD/svg10.dtd">
<svg version="1.0" xmlns="http://www.w3.org/2000/svg"
 width="1707.000000pt" height="1707.000000pt" viewBox="0 0 1707.000000 1707.000000"
 preserveAspectRatio="xMidYMid meet">

<g transform="translate(0.000000,1707.000000) scale(0.100000,-0.100000)"
fill="#000000" stroke="none">
<path d="M8260 13197 c-738 -540 -1441 -1056 -1651 -1212 -97 -71 -313 -230
-480 -352 -325 -238 -907 -665 -1154 -846 -82 -61 -348 -255 -590 -432 -439
-320 -891 -651 -1460 -1069 -165 -121 -401 -294 -525 -384 -316 -232 -441
-326 -492 -372 l-43 -40 23 -17 c26 -21 373 -248 902 -590 500 -324 1114 -722
1360 -883 107 -70 409 -266 670 -435 261 -170 579 -376 705 -458 127 -83 284
-184 350 -225 66 -42 345 -222 620 -402 275 -179 697 -454 938 -610 240 -157
657 -428 925 -603 268 -176 491 -321 496 -325 6 -3 7 410 3 1032 -4 790 -3
1038 6 1041 7 2 1382 9 3057 16 1675 6 3047 13 3049 15 6 5 -19 5307 -24 5313
-3 2 -1378 -2 -3055 -9 -1678 -7 -3053 -11 -3055 -8 -3 3 -8 392 -10 864 -6
928 -14 1384 -24 1384 -3 -1 -247 -177 -541 -393z"/>
</g>
</svg>
